# AST/ASF file generated using VICON BodyLanguage
# -----------------------------------------------
:version 1.10
:name VICON
:units
  mass 1.0
  length 0.45
  angle deg
:documentation
   .ast/.asf automatically generated from VICON data using
   VICON BodyBuilder and BodyLanguage model FoxedUp or BRILLIANT.MOD
:root
   order TX TY TZ RX RY RZ
   axis XYZ
   position 0 0 0  
   orientation 0 0 0 
:bonedata
  begin
     id 1 
     name lhipjoint
     direction 0.558404 -0.748506 0.357664 
     length 2.4234 
     axis 0 0 0  XYZ
  end
  begin
     id 2 
     name lfemur
     direction 0.34202 -0.939693 0  
     length 7.14567  
     axis 0 0 20  XYZ
    dof rx ry rz
    limits (-160.0 20.0)
           (-70.0 70.0)
           (-60.0 70.0)
  end
  begin
     id 3 
     name ltibia
     direction 0.34202 -0.939693 0   
     length 8.13956   
     axis 0 0 20   XYZ
    dof rx
    limits (-10.0 170.0)
  end
  begin
     id 4 
     name lfoot
     direction 0.0791314 -0.217412 0.972867   
     length 2.00134   
     axis -90 7.62852e-016 20   XYZ
    dof rx rz
    limits (-45.0 90.0)
           (-70.0 20.0)
  end
  begin
     id 5 
     name ltoes
     direction 1.53547e-011 -4.21922e-011 1   
     length 1.00735   
     axis -90 7.62852e-016 20   XYZ
    dof rx
    limits (-90.0 20.0)
  end
  begin
     id 6 
     name rhipjoint
     direction -0.496392 -0.78327 0.374276   
     length 2.31584  
     axis 0 0 0  XYZ 
  end
  begin
     id 7 
     name rfemur
     direction -0.34202 -0.939693 0   
     length 7.47417   
     axis 0 0 -20   XYZ
    dof rx ry rz
    limits (-160.0 20.0)
           (-70.0 70.0)
           (-70.0 60.0)
  end
  begin
     id 8 
     name rtibia
     direction -0.34202 -0.939693 0   
     length 7.69071   
     axis 0 0 -20   XYZ
    dof rx
    limits (-10.0 170.0)
 end
 begin
     id 9 
     name rfoot
     direction -0.103069 -0.28318 0.953512   
     length 2.16135  
     axis -90 -7.62852e-016 -20   XYZ
    dof rx rz
    limits (-45.0 90.0)
           (-20.0 70.0)
  end
  begin
     id 10 
     name rtoes
     direction -1.53581e-011 -4.21904e-011 1   
     length 1.07867   
     axis -90 -7.62852e-016 -20   XYZ
    dof rx
    limits (-90.0 20.0)
  end
  begin
     id 11 
     name lowerback
     direction -0.0258961 0.994776 -0.0987407   
     length 2.19412   
     axis 0 0 0   XYZ
    dof rx ry rz
    limits (-20.0 45.0)
           (-30.0 30.0)
           (-30.0 30.0)
  end
  begin
     id 12 
     name upperback
     direction 0.0402454 0.999185 0.00320666   
     length 2.18445   
     axis 0 0 0   XYZ
    dof rx ry rz
    limits (-20.0 45.0)
           (-30.0 30.0)
           (-30.0 30.0)
  end
  begin
     id 13 
     name thorax
     direction 0.0519376 0.997415 0.0496558   
     length 2.21487   
     axis 0 0 0   XYZ
    dof rx ry rz
    limits (-20.0 45.0)
           (-30.0 30.0)
           (-30.0 30.0)
  end
  begin
     id 14 
     name lowerneck
     direction -0.0921276 0.983211 0.157506   
     length 1.61201   
     axis 0 0 0   XYZ
    dof rx ry rz
    limits (-20.0 45.0)
           (-30.0 30.0)
           (-30.0 30.0)
  end
  begin
     id 15 
     name upperneck
     direction 0.0820814 0.98162 -0.172292   
     length 1.65275   
     axis 0 0 0   XYZ
    dof rx ry rz
    limits (-20.0 45.0)
           (-30.0 30.0)
           (-30.0 30.0)
  end
  begin
     id 16
     name head
     direction 0.0336554 0.996413 -0.0776455  
     length 1.66415  
     axis 0 0 0   XYZ
    dof rx ry rz
    limits (-20.0 45.0)
           (-30.0 30.0)
           (-30.0 30.0)
  end
  begin
     id 17 
     name lclavicle
     direction 0.94696 0.284418 -0.149576  
     length 3.41447  
     axis 0 0 0   XYZ
    dof ry rz
    limits (-20.0 10.0)
           (0.0 20.0)
  end
  begin
     id 18 
     name lhumerus
     direction 1 -0.000130264 -9.81312e-005   
     length 5.19964   
     axis 180 -30 -90   XYZ
    dof rx ry rz
    limits (-60.0 90.0)
           (-90.0 90.0)
           (-90.0 90.0)
  end
  begin
     id 19
     name lradius
     direction 1 -4.48961e-011 1.43854e-026   
     length 3.32189   
     axis 180 -30 -90   XYZ
    dof rx
    limits (-10.0 170.0)
  end
  begin
     id 20
     name lwrist
     direction 1 -4.48958e-011 3.1502e-026   
     length 1.66095   
     axis -1.97692e-014 90 90   XYZ
    dof ry
    limits (-180.0 0.0)
 end
  begin
     id 21 
     name lhand
     direction 1 -4.48927e-011 6.3004e-026   
     length 0.645616   
     axis -4.02019e-014 90 90   XYZ
    dof rx rz
    limits (-90.0 90.0)
           (-45.0 45.0)
  end
  begin
     id 22 
     name lfingers
     direction 1 -4.4904e-011 1.26008e-025   
     length 0.520512   
     axis -8.04039e-014 90 90   XYZ
    dof rx
    limits (0.0 90.0)
  end
  begin
     id 23
     name lthumb
     direction 0.707107 -6.34947e-011 0.707107   
     length 0.747354   
     axis -90 45 2.85299e-015   XYZ
    dof rx rz
    limits (-45.0 45.0)
           (-45.0 45.0)
  end
  begin
     id 24 
     name rclavicle
     direction -0.909391 0.383475 -0.161107   
     length 3.25176  
     axis 0 0 0   XYZ 
    dof ry rz
    limits (-10.0 20.0)
           (-20.0 0.0)
  end
  begin
     id 25 
     name rhumerus
     direction -1 -4.48965e-011 -1.81384e-027  
     length 5.6595   
     axis 180 30 90   XYZ
    dof rx ry rz
    limits (-90.0 60.0)
           (-90.0 90.0)
           (-90.0 90.0)
  end
  begin
     id 26 
     name rradius
     direction -1 -4.48996e-011 -8.09397e-027   
     length 3.37604   
     axis 180 30 90   XYZ
    dof rx
    limits (-10.0 170.0)
  end
  begin
     id 27 
     name rwrist
     direction -1 -4.48927e-011 -1.56669e-026   
     length 1.68802   
     axis 1.21142e-014 -90 -90   XYZ
    dof ry
    limits (-180.0 0.0)
  end
  begin
     id 28
     name rhand
     direction -1 -4.48912e-011 -3.13339e-026   
     length 0.824702   
     axis 1.99937e-014 -90 -90   XYZ
    dof rx rz
    limits (-90.0 90.0)
           (-45.0 45.0)
  end
  begin
     id 29
     name rfingers
     direction -1 -4.49011e-011 -6.26677e-026   
     length 0.664896   
     axis 3.99874e-014 -90 -90   XYZ
    dof rx
    limits (0.0 90.0)
  end
  begin
     id 30
     name rthumb
     direction -0.707107 -6.34931e-011 0.707107   
     length 0.954662   
     axis -90 -45 -2.85299e-015   XYZ
    dof rx rz
    limits (-45.0 45.0)
           (-45.0 45.0)
  end
:hierarchy
  begin
    root lhipjoint rhipjoint lowerback
    lhipjoint lfemur
    lfemur ltibia
    ltibia lfoot
    lfoot ltoes
    rhipjoint rfemur
    rfemur rtibia
    rtibia rfoot
    rfoot rtoes
    lowerback upperback
    upperback thorax
    thorax lowerneck lclavicle rclavicle
    lowerneck upperneck
    upperneck head
    lclavicle lhumerus
    lhumerus lradius
    lradius lwrist
    lwrist lhand lthumb
    lhand lfingers
    rclavicle rhumerus
    rhumerus rradius
    rradius rwrist
    rwrist rhand rthumb
    rhand rfingers
  end

#!OML:ASF F:\VICON\USERDATA\INSTALL\rory3\rory3.ASF
:FULLY-SPECIFIED
:DEGREES
359
root 7.40491 16.4012 12.186 -2.03566 18.0409 -2.97157
lowerback 4.76261 -7.76596 -6.24923
upperback -1.34341 -10.5806 8.54964
thorax -1.27272 -5.28271 13.093
lowerneck -6.2411 -5.92607 -14.2936
upperneck 17.7757 -8.32424 11.0071
head 7.52869 -4.09307 5.26701
rclavicle 7.76006e-014 -3.49861e-014
rhumerus -62.533 -42.0034 -33.2694
rradius 17.7328
rwrist 2.30681
rhand -14.7746 9.49155
rfingers 7.12502
rthumb 11.3822 -20.1795
lclavicle 7.76006e-014 -3.49861e-014
lhumerus 99.8729 -70.878 29.2337
lradius 86.015
lwrist 8.00135
lhand -13.6455 18.0059
lfingers 7.12502
lthumb 12.4709 47.6138
rfemur -34.1687 -1.02974 25.6617
rtibia 56.5813
rfoot -16.1728 -7.01509
rtoes 20.6962
lfemur -13.6699 12.865 -22.3615
ltibia 71.999
lfoot -6.19745 -12.8282
ltoes -12.6016
360
root 7.49217 16.48 12.2653 -2.19241 18.3339 -3.14908
lowerback 5.01373 -7.45929 -5.99327
upperback -1.36625 -10.1503 8.45866
thorax -1.6139 -5.03985 12.9023
lowerneck -6.32275 -6.26857 -14.2682
upperneck 18.0018 -8.76432 10.772
head 7.66908 -4.31656 5.1341
rclavicle 2.25621e-014 -4.45278e-014
rhumerus -58.8947 -40.586 -37.7285
rradius 18.2569
rwrist 1.53965
rhand -15.8863 10.3909
rfingers 7.12502
rthumb 10.3098 -19.3364
lclavicle 2.25621e-014 -4.45278e-014
lhumerus 95.4836 -71.1439 32.0561
lradius 86.6777
lwrist 8.04462
lhand -13.4503 17.3959
lfingers 7.12502
lthumb 12.6591 46.9923
rfemur -33.1121 -0.816259 25.5104
rtibia 55.6549
rfoot -16.2335 -7.37945
rtoes 21.7081
lfemur -14.6276 12.1821 -21.4537
ltibia 72.4553
lfoot -6.55498 -11.3656
ltoes -9.08892
361
root 7.57652 16.5528 12.3437 -2.36381 18.5718 -3.47591
lowerback 5.19362 -7.13706 -5.6144
upperback -1.35851 -9.68771 8.40868
thorax -1.89896 -4.78786 12.6659
lowerneck -6.29458 -6.57759 -14.4815
upperneck 18.0477 -9.21039 10.967
head 7.76113 -4.52783 5.18712
rclavicle 1.3418e-014 -1.11319e-014
rhumerus -55.5633 -38.9845 -41.6491
rradius 18.7769
rwrist 0.991607
rhand -16.9267 11.6701
rfingers 7.12502
rthumb 9.30604 -18.1045
lclavicle 1.3418e-014 -1.11319e-014
lhumerus 90.8602 -71.2188 35.0585
lradius 87.0392
lwrist 7.90859
lhand -12.9172 16.3448
lfingers 7.12502
lthumb 13.173 45.9087
rfemur -32.1602 -0.396444 25.5309
rtibia 54.7413
rfoot -16.3935 -7.93027
rtoes 23.3727
lfemur -15.5799 11.427 -20.3918
ltibia 72.7712
lfoot -6.36279 -9.24448
ltoes -2.41577
362
root 7.66131 16.6126 12.4275 -2.52464 18.796 -3.64971
lowerback 5.12079 -6.88303 -5.49395
upperback -1.20302 -9.33837 8.35816
thorax -1.81059 -4.62102 12.5157
lowerneck -6.37886 -6.78496 -14.784
upperneck 18.0897 -9.5302 11.3809
head 7.8709 -4.66415 5.34135
rclavicle 8.8571e-014 -5.725e-014
rhumerus -52.3452 -37.7963 -44.8349
rradius 19.1272
rwrist 1.01213
rhand -18.3412 12.8295
rfingers 7.12502
rthumb 7.94105 -17.0013
lclavicle 8.8571e-014 -5.725e-014
lhumerus 87.6538 -70.8943 36.3633
lradius 87.7857
lwrist 8.41544
lhand -13.359 17.505
lfingers 7.12502
lthumb 12.7472 47.0959
rfemur -31.0707 -0.0429974 25.4464
rtibia 53.8583
rfoot -16.5691 -8.5634
rtoes 22.7595
lfemur -16.4571 10.6464 -19.4643
ltibia 72.9217
lfoot -6.09164 -6.98048
ltoes 1.69219
363
root 7.75103 16.6766 12.5117 -2.5803 19.0857 -3.56316
lowerback 5.12757 -6.67991 -5.55282
upperback -1.20715 -9.06918 8.22133
thorax -1.90071 -4.47597 12.3993
lowerneck -6.26519 -6.91257 -14.9189
upperneck 18.1191 -9.74307 11.5618
head 7.90705 -4.76341 5.40502
rclavicle 1.11816e-015 -1.27222e-014
rhumerus -49.4879 -36.5942 -47.417
rradius 19.4511
rwrist 1.16302
rhand -20.1131 13.7592
rfingers 7.12502
rthumb 6.23064 -16.1292
lclavicle 1.11816e-015 -1.27222e-014
lhumerus 82.9986 -70.8992 39.1567
lradius 87.9191
lwrist 7.99697
lhand -13.6483 18.4546
lfingers 7.12502
lthumb 12.4682 48.0626
rfemur -30.0068 0.154971 25.0729
rtibia 53.0217
rfoot -16.7856 -8.91743
rtoes 22.6139
lfemur -17.2233 9.78657 -18.8531
ltibia 72.8198
lfoot -6.66517 -5.94413
ltoes -0.649828
364
root 7.84043 16.748 12.5871 -2.59375 19.4064 -3.3961
lowerback 5.32098 -6.45574 -5.59584
upperback -1.2951 -8.77241 8.02867
thorax -2.20149 -4.30095 12.2466
lowerneck -6.06587 -7.08396 -14.9698
upperneck 18.0384 -10.0097 11.6322
head 7.89015 -4.89378 5.41074
rclavicle -3.45947e-014 7.4743e-014
rhumerus -46.5744 -34.4947 -50.4626
rradius 20.2465
rwrist -0.228148
rhand -21.7736 14.4072
rfingers 7.12502
rthumb 4.62741 -15.5222
lclavicle -3.45947e-014 7.4743e-014
lhumerus 77.5149 -70.903 42.8361
lradius 87.5259
lwrist 7.35042
lhand -14.1958 20.0803
lfingers 7.12502
lthumb 11.9403 49.7198
rfemur -29.1652 0.445308 24.5623
rtibia 52.2335
rfoot -16.9067 -9.18017
rtoes 24.2792
lfemur -17.8186 8.89887 -18.3692
ltibia 72.482
lfoot -6.95061 -5.72603
ltoes 0.416047
365
root 7.92404 16.8165 12.6561 -2.68595 19.7266 -3.28768
lowerback 5.52973 -6.21362 -5.65394
upperback -1.20727 -8.45879 7.85749
thorax -2.32172 -4.13542 12.1097
lowerneck -5.85211 -7.322 -15.1845
upperneck 17.5906 -10.3865 12.0542
head 7.7943 -5.06037 5.54752
rclavicle 3.35418e-014 -6.52014e-014
rhumerus -43.5856 -31.838 -53.7628
rradius 21.5624
rwrist -2.79879
rhand -23.1142 15.0585
rfingers 7.12502
rthumb 3.33282 -14.8952
lclavicle 3.35418e-014 -6.52014e-014
lhumerus 73.0394 -70.4335 45.4297
lradius 87.0838
lwrist 7.0366
lhand -14.0897 21.3769
lfingers 7.12502
lthumb 12.0426 51.0105
rfemur -28.2647 0.766663 24.1541
rtibia 51.4646
rfoot -16.9136 -9.6717
rtoes 24.6813
lfemur -18.5112 7.99258 -17.8201
ltibia 71.9875
lfoot -5.65304 -5.72397
ltoes 9.35262
366
root 8.00879 16.8695 12.7222 -2.79399 19.9616 -3.1701
lowerback 5.95021 -5.95337 -5.66594
upperback -1.3107 -8.11716 7.69246
thorax -2.77422 -3.92913 11.9983
lowerneck -5.34596 -7.5412 -15.568
upperneck 17.166 -10.778 12.5692
head 7.67386 -5.2507 5.75257
rclavicle 8.56544e-014 -6.36111e-015
rhumerus -41.5553 -29.1058 -56.0393
rradius 23.1791
rwrist -5.22983
rhand -23.8051 16.0523
rfingers 7.12502
rthumb 2.66562 -13.9108
lclavicle 8.56544e-014 -6.36111e-015
lhumerus 67.5352 -70.1167 49.065
lradius 86.3671
lwrist 6.64499
lhand -13.0724 21.381
lfingers 7.12502
lthumb 13.0234 50.9545
rfemur -27.2697 1.02173 23.7795
rtibia 50.7097
rfoot -17.0969 -10.0418
rtoes 27.1493
lfemur -19.2438 7.06967 -17.2951
ltibia 71.3807
lfoot -9.42587 -6.84148
ltoes -3.90925
367
root 8.09471 16.9113 12.7884 -2.85385 20.1056 -3.09858
lowerback 6.46181 -5.70223 -5.59565
upperback -1.64534 -7.7783 7.54368
thorax -3.52982 -3.69871 11.8867
lowerneck -4.6251 -7.63533 -15.8644
upperneck 16.9762 -11.0196 12.8693
head 7.55416 -5.39008 5.89851
rclavicle 3.27249e-014 1.27222e-014
rhumerus -40.3057 -26.9728 -57.1938
rradius 24.7088
rwrist -7.23571
rhand -23.8655 17.0318
rfingers 7.12502
rthumb 2.60724 -12.932
lclavicle 3.27249e-014 1.27222e-014
lhumerus 60.5598 -69.9258 54.1254
lradius 85.3264
lwrist 5.90322
lhand -12.0521 21.3745
lfingers 7.12502
lthumb 14.0068 50.8826
rfemur -26.337 1.30339 23.4691
rtibia 49.9484
rfoot -14.1619 -10.8415
rtoes 11.9349
lfemur -19.8991 6.23742 -16.6836
ltibia 70.6608
lfoot -8.7851 -5.43974
ltoes 0.403563
368
root 8.18676 16.9607 12.8533 -2.93798 20.3769 -3.02908
lowerback 6.84462 -5.5566 -5.50659
upperback -1.86059 -7.58146 7.39112
thorax -4.05406 -3.56036 11.7307
lowerneck -4.07412 -7.63197 -16.0443
upperneck 16.8198 -11.105 13.1047
head 7.44155 -5.44674 6.01706
rclavicle 4.11981e-014 6.52014e-014
rhumerus -38.9106 -25.1701 -58.1713
rradius 26.259
rwrist -9.56375
rhand -23.392 17.5215
rfingers 7.12502
rthumb 3.06458 -12.4363
lclavicle 4.11981e-014 6.52014e-014
lhumerus 53.7385 -69.2031 58.9834
lradius 83.9482
lwrist 4.35404
lhand -10.5583 20.6474
lfingers 7.12502
lthumb 15.446 50.0502
rfemur -25.3408 1.35824 23.1411
rtibia 49.1523
rfoot -15.6831 -10.3382
rtoes 25.5207
lfemur -20.5243 5.38498 -16.1185
ltibia 69.7291
lfoot -9.42513 -4.95227
ltoes -0.0463898
369
root 8.2796 17.0072 12.9193 -3.14657 20.6189 -3.09185
lowerback 7.15047 -5.40951 -5.29403
upperback -1.8663 -7.37252 7.26216
thorax -4.32543 -3.44308 11.4956
lowerneck -4.09068 -7.72856 -16.03
upperneck 16.7613 -11.2471 13.1836
head 7.45209 -5.50708 6.0238
rclavicle -7.69794e-014 -1.59028e-015
rhumerus -37.3429 -23.7351 -58.9658
rradius 27.9146
rwrist -11.9459
rhand -22.4498 17.7074
rfingers 7.12502
rthumb 3.9744 -12.2353
lclavicle -7.69794e-014 -1.59028e-015
lhumerus 47.4667 -67.7263 63.4756
lradius 81.8759
lwrist 1.76191
lhand -7.3766 17.3495
lfingers 7.12502
lthumb 18.5086 46.489
rfemur -24.2362 1.47426 22.9653
rtibia 48.3325
rfoot -15.846 -10.7321
rtoes 23.6329
lfemur -21.0326 4.55474 -15.4344
ltibia 68.6374
lfoot -10.2134 -4.53533
ltoes -3.21423
370
root 8.36775 17.0465 12.99 -3.25567 20.7791 -3.02067
lowerback 7.31521 -5.2227 -5.25872
upperback -1.78986 -7.12814 7.10246
thorax -4.41813 -3.31844 11.2983
lowerneck -4.57985 -7.88143 -15.7678
upperneck 16.9011 -11.4039 13.0433
head 7.58666 -5.55532 5.89728
rclavicle 3.88624e-014 -6.04305e-014
rhumerus -35.8961 -22.6466 -59.5194
rradius 29.8153
rwrist -14.3267
rhand -21.3488 17.8341
rfingers 7.12502
rthumb 5.0376 -12.086
lclavicle 3.88624e-014 -6.04305e-014
lhumerus 44.9371 -67.2443 63.7756
lradius 81.0834
lwrist 2.50727
lhand -9.00043 20.9093
lfingers 7.12502
lthumb 16.946 50.19
rfemur -23.1924 1.71084 22.6834
rtibia 47.5076
rfoot -16.1362 -11.3641
rtoes 21.0447
lfemur -21.5186 3.71601 -14.8784
ltibia 67.3589
lfoot -10.7578 -3.89004
ltoes -4.66005
